# xmcd
#
# Track frame offsets: 
#        150
#        11947
#        22582
#        34312
#        45772
#        58469
#        72899
#        84494
#        94746
#        106678
#
# Disc length: 1570 seconds
#
# Revision: 0
# Processed by: cddbd v1.5.2PL0 Copyright (c) Steve Scherf et al.
# Submitted via: ExactAudioCopy v1.0b1
#
DISCID=7306200a
DTITLE=Rufus Thomas - Walking The Dog
DYEAR=1963
DGENRE=R&B
TTITLE0=The Dog
TTITLE1=Mashed Potatoes
TTITLE2=Ooh-Poo-Pah-Doo
TTITLE3=You Said
TTITLE4=Boom Boom
TTITLE5=It's Aw'rite
TTITLE6=Walkin' The Dog
TTITLE7=Ya Ya
TTITLE8=Land of a 1,000 Dances
TTITLE9=Can Your Monkey Do The Dog
EXTD=
EXTT0=
EXTT1=
EXTT2=
EXTT3=
EXTT4=
EXTT5=
EXTT6=
EXTT7=
EXTT8=
EXTT9=
PLAYORDER=
